<svg width="176" height="414" viewBox="0 0 176 414" fill="none" xmlns="http://www.w3.org/2000/svg">
<g filter="url(#filter0_d_247_2)">
<path d="M102.332 407L81.3964 396.31V255.998L102.332 245.753L122.822 255.998L102.332 266.243V407Z" fill="#BFBFBF"/>
<path d="M122.822 396.755L102.332 407V266.243L122.822 255.998V396.755Z" fill="#818181"/>
<path d="M101.886 407L80.951 396.31V255.998M101.886 407L122.376 396.755V255.998M101.886 407V266.243M80.951 255.998L101.886 266.243M80.951 255.998L101.886 245.753L122.376 255.998M101.886 266.243L122.376 255.998" stroke="white" stroke-width="6" stroke-linejoin="round"/>
<path d="M60.461 386.51L39.5256 375.82V235.508L60.461 225.263L80.951 235.508L60.461 245.753V386.51Z" fill="#BFBFBF"/>
<path d="M80.951 376.265L60.461 386.51V245.753L80.951 235.508V376.265Z" fill="#818181"/>
<path d="M60.461 386.51L39.5256 375.82V235.508M60.461 386.51L80.951 376.265V235.508M60.461 386.51V245.753M39.5256 235.508L60.461 245.753M39.5256 235.508L60.461 225.263L80.951 235.508M60.461 245.753L80.951 235.508" stroke="white" stroke-width="6" stroke-linejoin="round"/>
<path d="M112.577 246.644V271.588L28.8352 230.163V205.218L49.7706 194.528L133.067 235.953L112.577 246.644Z" fill="#BFBFBF"/>
<path d="M112.577 271.588V246.644L133.067 235.953V261.788L112.577 271.588Z" fill="#818181"/>
<path d="M133.067 235.953V261.788L112.577 271.588M133.067 235.953L112.577 246.644M133.067 235.953L49.7706 194.528L28.8352 205.218M112.577 246.644V271.588M112.577 246.644L28.8352 205.218M112.577 271.588L28.8352 230.163V205.218" stroke="white" stroke-width="6" stroke-linejoin="round"/>
<path d="M122.822 141.967L102.332 152.212V241.298L81.3964 231.053V141.967L102.332 131.722L122.822 141.967Z" fill="#BFBFBF"/>
<path d="M122.822 141.967L102.332 152.212V241.298L122.822 231.053V141.967Z" fill="#818181"/>
<path d="M101.886 152.212L122.376 141.967M101.886 152.212L80.951 141.967M101.886 152.212V241.298M122.376 141.967L101.886 131.722L80.951 141.967M122.376 141.967V231.053L101.886 241.298M80.951 141.967V231.053L101.886 241.298" stroke="white" stroke-width="6" stroke-linejoin="round"/>
<path d="M80.951 121.477L60.461 131.722V220.808L39.5256 210.563V121.477L60.461 111.232L80.951 121.477Z" fill="#BFBFBF"/>
<path d="M80.951 121.477L60.461 131.722V220.808L80.951 210.563V121.477Z" fill="#818181"/>
<path d="M60.461 131.722L80.951 121.477M60.461 131.722L39.5256 121.477M60.461 131.722V220.808M80.951 121.477L60.461 111.232L39.5256 121.477M80.951 121.477V210.563L60.461 220.808M39.5256 121.477V210.563L60.461 220.808" stroke="white" stroke-width="6" stroke-linejoin="round"/>
<path d="M158.011 117.022L127.722 132.612V170.474L3 108.559V70.2517L34.1804 54.216L158.011 117.022Z" fill="#BFBFBF"/>
<path d="M158.011 117.022L127.722 132.612V170.474L158.011 154.884V117.022Z" fill="#818181"/>
<path d="M127.722 132.612L158.011 117.022M127.722 132.612V170.474M127.722 132.612L3 70.2517M158.011 117.022V154.884L127.722 170.474M158.011 117.022L34.1804 54.216L3 70.2517M127.722 170.474L3 108.559V70.2517" stroke="white" stroke-width="6" stroke-linejoin="round"/>
<path d="M80.951 27.49V104.105L60.0156 93.4143V17.245L80.951 7L101.886 17.245L80.951 27.49Z" fill="#BFBFBF"/>
<path d="M80.951 104.105V27.49L101.886 17.245V93.4143L80.951 104.105Z" fill="#818181"/>
<path d="M80.951 27.49V104.105M80.951 27.49L60.0156 17.245M80.951 27.49L101.886 17.245M80.951 104.105L60.0156 93.4143V17.245M80.951 104.105L101.886 93.4143V17.245M60.0156 17.245L80.951 7L101.886 17.245" stroke="white" stroke-width="6" stroke-linejoin="round"/>
</g>
<defs>
<filter id="filter0_d_247_2" x="0" y="0" width="175.011" height="414" filterUnits="userSpaceOnUse" color-interpolation-filters="sRGB">
<feFlood flood-opacity="0" result="BackgroundImageFix"/>
<feColorMatrix in="SourceAlpha" type="matrix" values="0 0 0 0 0 0 0 0 0 0 0 0 0 0 0 0 0 0 127 0" result="hardAlpha"/>
<feOffset dx="10"/>
<feGaussianBlur stdDeviation="2"/>
<feComposite in2="hardAlpha" operator="out"/>
<feColorMatrix type="matrix" values="0 0 0 0 0 0 0 0 0 0 0 0 0 0 0 0 0 0 0.25 0"/>
<feBlend mode="normal" in2="BackgroundImageFix" result="effect1_dropShadow_247_2"/>
<feBlend mode="normal" in="SourceGraphic" in2="effect1_dropShadow_247_2" result="shape"/>
</filter>
</defs>
</svg>
