<svg width="512" height="512" fill="none" xmlns="http://www.w3.org/2000/svg">
	<path fill="#00ACED" d="M0 0h512v512H0z" />
	<g filter="url(#a)">
		<path
			d="m332.5 175.5-25.5 13V221l25.5-13v-32.5zM216 258v-5h-5v5h5zM295.5 220 275 210v80l11.5 5.5V320l19-10.5V286l-10-6v-60zM256.5 201 236 190.5V271l20.5 10v-80z"
			fill="#818181" />
		<path
			d="M182.5 163v-37l123 62v35.5l-123-60.5zM206.5 281v-24.5l80 39V320l-80-39zM187 126.5l25.5-12.5L330 172.5l-24.5 13-118.5-59z"
			fill="#BFBFBF" />
		<path
			d="m255.5 305.5-20-10V428l20-10.5v-112zM294.5 437l.5-121.5-8.5 4.5-11-5v132l19-10zM274 79l-16 8.5V157l16-8.5V79z"
			fill="#818181" />
		<path d="m216.5 175 19 11v242l-19-10V175zM256 195l19 11v241l-19-10V195z" fill="#BFBFBF" />
		<path
			d="m305.5 223.5 27.948-14.219.01-.005a1 1 0 0 0 .542-.884V172.5m-28.5 51v-36m0 36-10-4.919M182.5 126v36.383a.998.998 0 0 0 .554.889l.01.006 33.436 16.446M182.5 126l29.044-14.768a1 1 0 0 1 .913-.002L334 172.5M182.5 126l123 61.5m28.5-15-28.5 15m-19 108 19-9.5m-19 9.5V320m0-24.5-11-5.431m30-4.069v22.915a1 1 0 0 1-.521.873L286.5 320m19-34-10-6m-20 167 18.46-9.716.011-.005a1 1 0 0 0 .529-.877V315.579M275.5 447l-19.442-9.721-.01-.005a1 1 0 0 1-.548-.886V305.507a1.001 1.001 0 0 0-.557-.891l-.01-.005-17.98-8.765a1 1 0 0 0-1.453.881V428m40 19V316.227a1 1 0 0 1 1.453-.881L286.5 320m-51 108-18.442-9.221-.01-.005a1 1 0 0 1-.548-.886V286.495a1 1 0 0 0-.557-.891l-.01-.006-8.866-4.321-.01-.005a1.001 1.001 0 0 1-.557-.891V256m29 172 19-10m-48-162 9.982-5.5M206.5 256l8.543 4.218.023.012a1 1 0 0 0 1.434-.891v-79.615m19 91.089 21-10.313m-21 10.313 19.549 9.483a1 1 0 0 0 1.451-.882V199.398m-21 71.415v-81.744m40 101 20-10.069m-20 10.069v-81.325m20 71.256v-61.419m-79-38.857 19 9.345m0 0 21 10.329m0 0 19 9.346m0 0 20 9.837"
			stroke="#fff" stroke-width="6" stroke-linejoin="round" />
		<path d="M259 69.5 244 77l15 7.5 14-7.5-14-7.5zM276.315 79.478l-16 8.5v69.5l16-8.5v-69.5z"
			fill="#818181" />
		<path d="m240.315 79.478 17 8.5v69.5l-17-8.5v-69.5z" fill="#BFBFBF" />
		<path
			d="M238.815 76.915v72.449a1 1 0 0 0 .548.892l19.452 9.861m-20-83.202 19.543-9.71c.287-.142.625-.139.909.01l18.548 9.7m-39 0 20 10.063m0 73.139 18.471-9.856c.325-.174.529-.513.529-.883V76.915m-19 83.202V86.978m19-10.063-19 10.063"
			stroke="#fff" stroke-width="6" stroke-linecap="round" stroke-linejoin="round" />
	</g>
	<defs>
		<filter id="a" x="179.5" y="60.101" width="172.5" height="393.899"
			filterUnits="userSpaceOnUse" color-interpolation-filters="sRGB">
			<feFlood flood-opacity="0" result="BackgroundImageFix" />
			<feColorMatrix in="SourceAlpha" values="0 0 0 0 0 0 0 0 0 0 0 0 0 0 0 0 0 0 127 0"
				result="hardAlpha" />
			<feOffset dx="11" />
			<feGaussianBlur stdDeviation="2" />
			<feComposite in2="hardAlpha" operator="out" />
			<feColorMatrix values="0 0 0 0 0 0 0 0 0 0 0 0 0 0 0 0 0 0 0.25 0" />
			<feBlend in2="BackgroundImageFix" result="effect1_dropShadow_2_18" />
			<feBlend in="SourceGraphic" in2="effect1_dropShadow_2_18" result="shape" />
		</filter>
	</defs>
</svg>