<svg clip-rule="evenodd" fill-rule="evenodd" height="2500" image-rendering="optimizeQuality" shape-rendering="geometricPrecision" text-rendering="geometricPrecision" width="2500" xmlns="http://www.w3.org/2000/svg" viewBox="-2.5011104298755527e-12 -0.371 1024.3730000000025 1024.3709999999587"><path d="M529.151 25.716c-.299 3.385-1.931 6.038-4.9 7.962a16715.8 16715.8 0 0 0-156.785 126.776h-20.823c6.855-8.293 14-16.458 21.436-24.498A19794.099 19794.099 0 0 0 497.304 1.218c1.928-1.385 3.97-1.589 6.125-.612a736.852 736.852 0 0 0 25.722 25.11z" fill="#f6e245" opacity=".991"/><path d="M612.444 33.066c.646 1.65.85 3.283.612 4.9-72.41 41-144.883 81.83-217.417 122.488-5.147.388-10.047-.021-14.7-1.225A16576.06 16576.06 0 0 1 542.626 44.702c1.62-1 2.436-2.429 2.45-4.287a1031.818 1031.818 0 0 1 48.383-33.072 247.43 247.43 0 0 1 7.35 7.35 285.809 285.809 0 0 0 11.636 18.373z" fill="#428eda" opacity=".996"/><path d="M529.151 25.716l15.924 14.699c-.014 1.858-.83 3.287-2.45 4.287A16576.06 16576.06 0 0 0 380.94 159.229h-1.225c-3.954 1.12-8.036 1.527-12.249 1.225A16715.8 16715.8 0 0 1 524.252 33.678c2.968-1.924 4.6-4.577 4.9-7.962z" fill="#a39731"/><path d="M699.41 73.487a11293.1 11293.1 0 0 1-246.202 76.555c-4.61 1.044-8.693 2.881-12.249 5.512a450.477 450.477 0 0 1-17.148 4.9c-5.957.39-11.673-.017-17.148-1.225a27043.103 27043.103 0 0 1 218.03-103.503c1.538-.51 2.355-1.531 2.45-3.062A1319.754 1319.754 0 0 0 676.75 29.39a4.83 4.83 0 0 1 2.45 1.225 510.953 510.953 0 0 1 20.21 42.87z" fill="#94d405"/><path d="M612.444 33.066l14.698 19.598c-.094 1.53-.911 2.551-2.45 3.062a27043.103 27043.103 0 0 0-218.03 103.503h-1.224c-3.129 1.088-6.395 1.496-9.8 1.225A57735.672 57735.672 0 0 0 613.057 37.965c.239-1.616.034-3.25-.612-4.9z" fill="#2b5f92"/><path d="M699.41 73.487a85.753 85.753 0 0 0 8.575 15.923c-.136.756-.544 1.369-1.225 1.838a24805.795 24805.795 0 0 1-265.8 64.306c3.555-2.63 7.638-4.468 12.248-5.512a11293.1 11293.1 0 0 0 246.203-76.555z" fill="#6a9401" opacity=".998"/><path d="M790.052 145.755a26667.909 26667.909 0 0 0-284.174 14.699h-82.067a450.477 450.477 0 0 0 17.148-4.9 24805.795 24805.795 0 0 0 265.8-64.306c.682-.47 1.09-1.082 1.226-1.838a706.473 706.473 0 0 1 64.919-14.086c1.015 2.225 2.037 4.47 3.062 6.737 4.726 21.339 9.42 42.57 14.086 63.694z" fill="#fd4f57"/><path d="M790.052 145.755c2.182 4.532 3.407 9.432 3.675 14.699H505.878a26667.909 26667.909 0 0 1 284.174-14.699z" fill="#b2363d"/><path d="M379.715 159.229h1.225c4.652 1.204 9.552 1.613 14.699 1.225 3.404.27 6.67-.137 9.799-1.225 2.536 1.603 5.599 2.42 9.186 2.45 3.295-.004 6.357-.412 9.187-1.225H867.22v188.633c-1.213 10.392-1.629 21.008-1.225 31.847v33.072a42.001 42.001 0 0 0 1.225 13.473c-1.213 7.527-1.617 15.285-1.225 23.273v67.369c-.404 93.586 0 187.087 1.225 280.5v85.742H622.243c-5.834-.336-11.551.072-17.149 1.225-7.527-1.213-15.284-1.621-23.273-1.225h-14.698a368.323 368.323 0 0 0-60.02 0H143.312V660.208v-1.225c1.217-11.619 1.625-23.459 1.225-35.521.203-11.032 0-22.056-.613-33.072-1.272-.912-1.885-2.137-1.837-3.675.756.136 1.368.544 1.837 1.225.613-14.693.817-29.391.613-44.096.408-105.138-.001-210.07-1.225-314.796v-68.594H347.868c5.087.816 10.396 1.224 15.924 1.225 5.783-.01 11.09-.827 15.923-2.45z" fill="#3c3b3b" opacity=".986"/><path d="M379.715 159.229c-4.832 1.623-10.14 2.44-15.923 2.45-5.528-.001-10.837-.41-15.924-1.225h19.598c4.213.302 8.295-.105 12.249-1.225z" fill="#716c3e" opacity=".999"/><path d="M405.438 159.229h1.225c5.475 1.208 11.191 1.616 17.148 1.225-2.83.813-5.892 1.221-9.187 1.225-3.587-.03-6.65-.847-9.186-2.45z" fill="#576c2c"/><path d="M160.46 180.052h688.387c.208 228.238 0 456.475-.613 684.712a48272.775 48272.775 0 0 1-343.58 1.225c-114.613 0-229.14-.409-343.581-1.225-.613-228.237-.817-456.474-.613-684.712z" fill="#444"/><path d="M143.312 229.048a20226.754 20226.754 0 0 1 1.225 314.796c-1.438-1.242-2.254-2.875-2.45-4.9 1.217-12.845 1.627-25.911 1.225-39.196v-270.7z" fill="#8c383d"/><path d="M143.312 229.048v270.7a9027.766 9027.766 0 0 1-14.699-268.25c4.87-.974 9.77-1.791 14.699-2.45z" fill="#b0363c"/><path d="M128.613 231.497a9027.766 9027.766 0 0 0 14.699 268.25c.402 13.286-.008 26.352-1.225 39.197a46543.733 46543.733 0 0 0-50.22-207.006c-.274-4.485-1.498-8.568-3.675-12.249.13-3.159-.687-6.016-2.45-8.574a2420.458 2420.458 0 0 0-9.187-31.847 581.342 581.342 0 0 0-6.124-33.072 688.927 688.927 0 0 1 58.182-14.699z" fill="#fd4e57"/><path d="M737.382 289.067c.778 8.927.573 17.91-.612 26.948a67650.61 67650.61 0 0 0-80.23 401.763h-3.675a16070.453 16070.453 0 0 1-176.384-71.656c-5.522-2.39-11.237-3.207-17.148-2.45a8.547 8.547 0 0 0-3.063 4.287 2263.994 2263.994 0 0 0 0 105.34c.985 3.242 2.823 5.691 5.512 7.35-6.406 1.747-11.918.114-16.536-4.9a2821.04 2821.04 0 0 1 0-117.589c39.25-46.39 78.244-92.936 116.977-139.637a4380.183 4380.183 0 0 1 56.345-66.756 3428.862 3428.862 0 0 0-64.919 50.832 1266.27 1266.27 0 0 0-41.646 30.01 10642.148 10642.148 0 0 0-121.264 94.317 12.565 12.565 0 0 1-4.9 1.837 3403.864 3403.864 0 0 1-106.565-43.484c-6.801-4.8-9.251-11.128-7.349-18.985a18.004 18.004 0 0 1 3.675-4.288 120162.989 120162.989 0 0 0 447.083-256.001 25.098 25.098 0 0 1 11.024 0c1.767.462 2.992 1.482 3.675 3.062z" fill="#fefefe"/><path d="M737.382 289.067c5.258 2.418 7.3 6.5 6.124 12.249a39687.613 39687.613 0 0 0-68.593 407.888c-1.545 3.378-2.565 7.053-3.062 11.024-6.91 3.591-13.238 2.775-18.986-2.45h3.674a67650.61 67650.61 0 0 1 80.23-401.763c1.186-9.038 1.39-18.02.613-26.948z" fill="#dbdbdb"/><path d="M657.764 726.352c12.55 1.333 18.266-4.384 17.149-17.148a39687.613 39687.613 0 0 1 68.593-407.888c2.5-2.983 5.358-3.187 8.575-.612 3.738 2.693 6.188 6.163 7.349 10.411a50388.489 50388.489 0 0 1-71.656 418.912c-4.93 3.543-10.442 4.564-16.536 3.062-4.895-1.63-9.386-3.877-13.474-6.737z" fill="#2f2f2f"/><path d="M85.742 311.115c1.763 2.558 2.58 5.415 2.45 8.574.273 4.486 1.498 8.568 3.675 12.25a46543.733 46543.733 0 0 1 50.22 207.005c.196 2.025 1.012 3.658 2.45 4.9.204 14.705 0 29.403-.613 44.096-.469-.681-1.081-1.09-1.837-1.225v-1.225c1.418-11.216 1.622-22.65.612-34.297A45539.732 45539.732 0 0 1 69.82 319.69a95.204 95.204 0 0 1 15.923-8.574z" fill="#6b9203" opacity=".997"/><path d="M69.819 319.69a45539.732 45539.732 0 0 0 72.88 231.503c1.01 11.648.806 23.08-.612 34.297A20593.22 20593.22 0 0 0 50.22 393.183c-.56-.978-1.376-1.386-2.45-1.225a1238.825 1238.825 0 0 0-23.272-49.608c.317-1.545 1.134-2.77 2.45-3.675a566.999 566.999 0 0 1 42.87-18.986z" fill="#95d402"/><path d="M88.192 319.69c2.177 3.68 3.401 7.763 3.675 12.248-2.177-3.68-3.402-7.763-3.675-12.249z" fill="#a77626"/><path d="M867.22 349.087a22764.454 22764.454 0 0 0 155.56 148.211c1.385 1.928 1.593 3.97.613 6.124a1454.771 1454.771 0 0 0-31.234 31.848c-42.05-51.446-84.113-102.891-126.164-154.336-.404-10.84.012-21.455 1.225-31.847z" fill="#f6e245" opacity=".991"/><path d="M865.995 380.934c42.05 51.445 84.113 102.89 126.164 154.336-4.52 4.931-9.016 9.83-13.474 14.698-3.565-2.13-6.627-4.988-9.187-8.574a6270.696 6270.696 0 0 0-103.503-145.762v-14.698z" fill="#a39730"/><path d="M47.77 391.958c1.074-.16 1.89.247 2.45 1.225a20593.22 20593.22 0 0 1 91.867 192.307v1.225c-.048 1.538.565 2.763 1.837 3.675.613 11.016.816 22.04.613 33.072-1.722-.58-2.54-1.805-2.45-3.675.813-3.241 1.222-6.711 1.225-10.412.103-4.434-.51-8.72-1.837-12.861A14304.504 14304.504 0 0 1 34.909 405.431c-.822-.92-1.842-1.33-3.062-1.224a173.803 173.803 0 0 1 15.924-12.25z" fill="#2d5f8f"/><path d="M865.995 395.632a6270.696 6270.696 0 0 1 103.503 145.762c2.56 3.586 5.622 6.444 9.187 8.574a279.296 279.296 0 0 0 28.785 40.422c1.445 2.903 2.878 5.76 4.287 8.574-.037 1.873-.858 3.302-2.45 4.287a384.617 384.617 0 0 0-24.498 16.536c-1.862-.014-3.282-.83-4.287-2.45a8162.678 8162.678 0 0 0-114.527-203.331v-18.374z" fill="#428dda" opacity=".996"/><path d="M31.847 404.207c1.22-.106 2.24.303 3.062 1.224a14304.504 14304.504 0 0 0 106.566 191.083c1.327 4.14 1.94 8.427 1.837 12.861-.003 3.7-.412 7.17-1.225 10.412a6040.664 6040.664 0 0 1-96.154-135.963c-1.383-2.01-3.22-3.235-5.512-3.674A2512.359 2512.359 0 0 1 2.45 425.642c.317-1.544 1.134-2.77 2.45-3.675a660.05 660.05 0 0 0 26.947-17.76z" fill="#408ddb" opacity=".996"/><path d="M865.995 414.006a8162.678 8162.678 0 0 1 114.527 203.331c1.005 1.62 2.425 2.436 4.287 2.45a76.489 76.489 0 0 1-18.373 12.249c-1.531-.095-2.548-.912-3.062-2.45a70921.776 70921.776 0 0 0-96.154-202.107 42.001 42.001 0 0 1-1.225-13.473z" fill="#2b5e91" opacity=".999"/><path d="M867.22 427.48a70921.776 70921.776 0 0 1 96.154 202.106c.514 1.538 1.53 2.355 3.062 2.45a4680.855 4680.855 0 0 0 23.273 50.833c-.319 1.544-1.14 2.77-2.45 3.674a74.746 74.746 0 0 0-12.249 6.125 101.445 101.445 0 0 0-23.273 11.024 15.826 15.826 0 0 1-6.124.612 19644.588 19644.588 0 0 0-79.618-253.552c-.392-7.988.012-15.746 1.225-23.273z" fill="#94d405" opacity=".999"/><path d="M562.223 498.523A5890.032 5890.032 0 0 0 407.887 615.5c-5.847 2.792-10.747 1.77-14.698-3.062l160.46-129.839a3428.862 3428.862 0 0 1 64.919-50.832 4380.183 4380.183 0 0 0-56.345 66.756z" fill="#2f2f2f"/><path d="M865.995 450.752a19644.588 19644.588 0 0 1 79.618 253.552 229.023 229.023 0 0 1-15.924 9.8 768.126 768.126 0 0 1-13.473-50.221c.11-3.249-.71-6.106-2.45-8.574a8368.208 8368.208 0 0 0-47.77-193.533v-11.024z" fill="#6a9301" opacity=".998"/><path d="M865.995 461.776a8368.208 8368.208 0 0 1 47.77 193.533c-.11 3.248.711 6.106 2.45 8.574a768.126 768.126 0 0 0 13.474 50.22 7143.526 7143.526 0 0 0 15.924 63.082c-1.495 2.131-3.528 3.356-6.125 3.675a1536.645 1536.645 0 0 1-58.794 14.086c-3.76-92.52-8.66-184.795-14.699-276.825v-56.345z" fill="#fc4f56"/><path d="M40.421 480.15c2.292.44 4.13 1.664 5.512 3.674a6040.664 6040.664 0 0 0 96.154 135.963c-.09 1.87.728 3.095 2.45 3.675.4 12.062-.008 23.902-1.225 35.521.203-8.176 0-16.342-.613-24.497A19308.55 19308.55 0 0 0 28.172 493.623c3.213-5.256 7.296-9.746 12.25-13.473z" fill="#a19632"/><path d="M28.172 493.623A19308.55 19308.55 0 0 1 142.7 634.486c.613 8.155.816 16.321.613 24.497v1.225a10915.604 10915.604 0 0 1-99.216-93.704c-1.883-1.36-2.698-3.197-2.45-5.512a6.044 6.044 0 0 1-3.674-.612A1627.096 1627.096 0 0 0 0 523.02a266.614 266.614 0 0 1 22.66-25.722 37.71 37.71 0 0 0 5.512-3.675z" fill="#f5e245" opacity=".991"/><path d="M553.649 482.6c-53.487 43.278-106.973 86.559-160.46 129.838-3.39 2.961-7.064 3.165-11.024.612a2261.933 2261.933 0 0 0-109.015-45.32c-5.611-4.212-7.449-9.724-5.512-16.537.808-2.234 2.238-3.867 4.287-4.9-1.902 7.858.548 14.186 7.35 18.986a3403.864 3403.864 0 0 0 106.564 43.484 12.565 12.565 0 0 0 4.9-1.837c40.2-31.735 80.62-63.174 121.264-94.317a1266.27 1266.27 0 0 1 41.646-30.01z" fill="#a7a7a7"/><path d="M865.995 518.121a11132.343 11132.343 0 0 1 14.699 276.825c-4.74.456-9.236 1.68-13.474 3.675a16092.109 16092.109 0 0 1-1.225-280.5z" fill="#af363c"/><path d="M652.865 717.778c5.748 5.225 12.076 6.041 18.986 2.45.497-3.971 1.517-7.646 3.062-11.024 1.117 12.764-4.598 18.48-17.149 17.148a7210.21 7210.21 0 0 1-99.215-40.421c-3.376-2.087-7.05-3.72-11.024-4.9a1149.4 1149.4 0 0 0-78.393-33.072l-1.225 1.225a164.124 164.124 0 0 1 16.536 40.421 1788.535 1788.535 0 0 0 6.737 33.072c-3.36 4.808-5.81 10.116-7.35 15.924-6.054 7.072-12.791 13.606-20.21 19.598-.569.728-.773 1.545-.613 2.45h-1.225c-2.69-1.659-4.527-4.108-5.512-7.35a2263.994 2263.994 0 0 1 0-105.34 8.547 8.547 0 0 1 3.063-4.287c5.911-.757 11.626.06 17.148 2.45a16070.453 16070.453 0 0 0 176.384 71.656z" fill="#aaa"/><path d="M547.525 681.031c-2.797.133-5.247 1.153-7.35 3.062a3514.114 3514.114 0 0 0-56.345 54.508c1.54-5.808 3.99-11.116 7.35-15.924-2.345-10.976-4.59-22-6.737-33.072a164.124 164.124 0 0 0-16.536-40.42l1.225-1.226a1149.4 1149.4 0 0 1 78.393 33.072z" fill="#959595"/><path d="M913.766 655.309c1.74 2.468 2.56 5.325 2.45 8.574-1.74-2.468-2.56-5.326-2.45-8.574z" fill="#bb6d31"/><path d="M547.525 681.031c3.973 1.18 7.648 2.813 11.024 4.9a6446.606 6446.606 0 0 0-78.393 72.88c-5.195 5.015-10.91 5.628-17.149 1.838-.16-.905.044-1.722.613-2.45 7.419-5.992 14.156-12.526 20.21-19.598a3514.114 3514.114 0 0 1 56.345-54.508c2.103-1.91 4.553-2.93 7.35-3.062z" fill="#2e2e2e"/><path d="M507.103 884.363a368.323 368.323 0 0 1 60.02 0c0 .817-.408 1.225-1.225 1.225-13.663-1.22-27.545-1.627-41.646-1.225h-17.149z" fill="#4c5930"/><path d="M225.38 884.363h280.498c-2.1 1.516-4.549 2.333-7.349 2.45-3.241-.814-6.711-1.223-10.411-1.225-86.375 4.51-172.73 9.002-259.064 13.473-1.221-4.874-2.446-9.773-3.675-14.698z" fill="#b0363c"/><path d="M505.878 884.363H524.252a7804.814 7804.814 0 0 1-209.456 66.144 173.083 173.083 0 0 1-7.35-14.699c1.652-2.425 4.102-3.855 7.35-4.287a15508.601 15508.601 0 0 0 183.733-44.709c2.8-.116 5.25-.933 7.35-2.45z" fill="#6b9202" opacity=".997"/><path d="M524.252 884.363c14.1-.402 27.983.006 41.646 1.225-58.12 27.419-116.506 54.979-175.159 82.68a18.004 18.004 0 0 0-3.675 4.287 728.432 728.432 0 0 0-49.608 23.272l-3.674-3.674a991.725 991.725 0 0 1-18.986-41.646 7804.814 7804.814 0 0 0 209.456-66.144z" fill="#95d401" opacity=".999"/><path d="M567.123 884.363h14.698a19418.132 19418.132 0 0 1-182.508 102.89 104.829 104.829 0 0 0-12.249-14.698 18.004 18.004 0 0 1 3.675-4.288c58.653-27.7 117.04-55.26 175.159-82.68.817 0 1.225-.407 1.225-1.224z" fill="#2d5f8e" opacity=".999"/><path d="M581.821 884.363c7.99-.396 15.746.012 23.273 1.225-42.018 29.59-84.074 59.191-126.163 88.804-1.883 1.36-2.699 3.197-2.45 5.512a1287.4 1287.4 0 0 0-55.12 37.971 219.638 219.638 0 0 1-22.048-30.622 19418.132 19418.132 0 0 0 182.508-102.89z" fill="#408dda" opacity=".997"/><path d="M622.243 884.363c-44.049 35.508-88.144 71.03-132.288 106.565a130.607 130.607 0 0 1-13.474-11.024c-.249-2.315.567-4.152 2.45-5.512 42.09-29.613 84.145-59.215 126.163-88.804 5.598-1.153 11.315-1.561 17.149-1.225z" fill="#a19632"/><path d="M622.243 884.363h35.521A7019.83 7019.83 0 0 1 524.864 1024a267.038 267.038 0 0 1-34.91-33.072c44.145-35.535 88.24-71.057 132.289-106.565z" fill="#f5e245" opacity=".992"/><path d="M498.53 886.812a15508.601 15508.601 0 0 1-183.734 44.709c-3.248.432-5.698 1.862-7.35 4.287a4297.552 4297.552 0 0 1-63.693 14.699c-1.405-.39-2.427-1.206-3.063-2.45a3471.778 3471.778 0 0 0-11.636-48.996c86.335-4.47 172.69-8.962 259.064-13.473 3.7.002 7.17.411 10.411 1.224z" fill="#fc4e56"/></svg>